<svg width="20" height="20" viewBox="0 0 20 20" fill="none" xmlns="http://www.w3.org/2000/svg">
<path fill-rule="evenodd" clip-rule="evenodd" d="M14.5834 12.4999C14.2066 12.4999 13.6741 12.552 13.1199 12.6279C12.8609 12.6634 12.6635 12.8608 12.628 13.1198C12.5521 13.674 12.5 14.2064 12.5 14.5833C12.5 14.9601 12.5521 15.4925 12.628 16.0467C12.6635 16.3057 12.8609 16.5031 13.1199 16.5386C13.6741 16.6145 14.2066 16.6666 14.5834 16.6666C14.9602 16.6666 15.4926 16.6145 16.0469 16.5386C16.3058 16.5031 16.5032 16.3057 16.5387 16.0467C16.6146 15.4925 16.6667 14.9601 16.6667 14.5833C16.6667 14.2064 16.6146 13.674 16.5387 13.1198C16.5032 12.8608 16.3058 12.6634 16.0469 12.6279C15.4926 12.552 14.9602 12.4999 14.5834 12.4999ZM12.8937 10.9767C11.8938 11.1136 11.1137 11.8937 10.9768 12.8936C10.8982 13.4671 10.8334 14.0901 10.8334 14.5833C10.8334 15.0765 10.8982 15.6994 10.9768 16.2729C11.1137 17.2728 11.8938 18.0529 12.8937 18.1898C13.4672 18.2684 14.0902 18.3333 14.5834 18.3333C15.0766 18.3333 15.6995 18.2684 16.273 18.1898C17.2729 18.0529 18.053 17.2728 18.19 16.2729C18.2685 15.6994 18.3334 15.0765 18.3334 14.5833C18.3334 14.0901 18.2685 13.4671 18.19 12.8936C18.053 11.8937 17.2729 11.1136 16.273 10.9767C15.6995 10.8981 15.0766 10.8333 14.5834 10.8333C14.0902 10.8333 13.4672 10.8981 12.8937 10.9767Z" fill="#5F6165"/>
<path fill-rule="evenodd" clip-rule="evenodd" d="M5.41663 12.4999C5.03981 12.4999 4.5074 12.552 3.95314 12.6279C3.6942 12.6634 3.49675 12.8608 3.46129 13.1198C3.38538 13.674 3.33329 14.2064 3.33329 14.5833C3.33329 14.9601 3.38538 15.4925 3.46129 16.0467C3.49675 16.3057 3.6942 16.5031 3.95314 16.5386C4.5074 16.6145 5.03981 16.6666 5.41663 16.6666C5.79344 16.6666 6.32585 16.6145 6.88012 16.5386C7.13906 16.5031 7.3365 16.3057 7.37196 16.0467C7.44787 15.4925 7.49996 14.9601 7.49996 14.5833C7.49996 14.2064 7.44787 13.674 7.37196 13.1198C7.3365 12.8608 7.13906 12.6634 6.88012 12.6279C6.32585 12.552 5.79344 12.4999 5.41663 12.4999ZM3.72699 10.9767C2.72707 11.1136 1.94698 11.8937 1.81004 12.8936C1.73149 13.4671 1.66663 14.0901 1.66663 14.5833C1.66663 15.0765 1.73149 15.6994 1.81004 16.2729C1.94698 17.2728 2.72707 18.0529 3.72699 18.1898C4.3005 18.2684 4.92343 18.3333 5.41663 18.3333C5.90983 18.3333 6.53275 18.2684 7.10626 18.1898C8.10618 18.0529 8.88627 17.2728 9.02322 16.2729C9.10176 15.6994 9.16663 15.0765 9.16663 14.5833C9.16663 14.0901 9.10176 13.4671 9.02322 12.8936C8.88627 11.8937 8.10618 11.1136 7.10626 10.9767C6.53275 10.8981 5.90983 10.8333 5.41663 10.8333C4.92343 10.8333 4.3005 10.8981 3.72699 10.9767Z" fill="#5F6165"/>
<path fill-rule="evenodd" clip-rule="evenodd" d="M14.5834 3.33341C14.2066 3.33341 13.6741 3.3855 13.1199 3.46141C12.8609 3.49687 12.6635 3.69432 12.628 3.95326C12.5521 4.50752 12.5 5.03993 12.5 5.41675C12.5 5.79357 12.5521 6.32598 12.628 6.88024C12.6635 7.13918 12.8609 7.33662 13.1199 7.37209C13.6741 7.44799 14.2066 7.50008 14.5834 7.50008C14.9602 7.50008 15.4926 7.44799 16.0469 7.37209C16.3058 7.33662 16.5032 7.13918 16.5387 6.88024C16.6146 6.32598 16.6667 5.79357 16.6667 5.41675C16.6667 5.03993 16.6146 4.50752 16.5387 3.95326C16.5032 3.69432 16.3058 3.49687 16.0469 3.46141C15.4926 3.3855 14.9602 3.33341 14.5834 3.33341ZM12.8937 1.81016C11.8938 1.9471 11.1137 2.72719 10.9768 3.72711C10.8982 4.30062 10.8334 4.92355 10.8334 5.41675C10.8334 5.90995 10.8982 6.53288 10.9768 7.10639C11.1137 8.1063 11.8938 8.8864 12.8937 9.02334C13.4672 9.10188 14.0902 9.16675 14.5834 9.16675C15.0766 9.16675 15.6995 9.10188 16.273 9.02334C17.2729 8.8864 18.053 8.1063 18.19 7.10639C18.2685 6.53288 18.3334 5.90995 18.3334 5.41675C18.3334 4.92355 18.2685 4.30062 18.19 3.72711C18.053 2.72719 17.2729 1.9471 16.273 1.81016C15.6995 1.73161 15.0766 1.66675 14.5834 1.66675C14.0902 1.66675 13.4672 1.73161 12.8937 1.81016Z" fill="#5F6165"/>
<path fill-rule="evenodd" clip-rule="evenodd" d="M5.41663 3.33341C5.03981 3.33341 4.5074 3.3855 3.95314 3.46141C3.6942 3.49687 3.49675 3.69432 3.46129 3.95326C3.38538 4.50752 3.33329 5.03993 3.33329 5.41675C3.33329 5.79357 3.38538 6.32598 3.46129 6.88024C3.49675 7.13918 3.6942 7.33662 3.95314 7.37209C4.5074 7.44799 5.03981 7.50008 5.41663 7.50008C5.79344 7.50008 6.32585 7.44799 6.88012 7.37209C7.13906 7.33662 7.3365 7.13918 7.37196 6.88024C7.44787 6.32598 7.49996 5.79357 7.49996 5.41675C7.49996 5.03993 7.44787 4.50752 7.37196 3.95326C7.3365 3.69432 7.13906 3.49687 6.88012 3.46141C6.32585 3.3855 5.79344 3.33341 5.41663 3.33341ZM3.72699 1.81016C2.72707 1.9471 1.94698 2.72719 1.81004 3.72711C1.73149 4.30062 1.66663 4.92355 1.66663 5.41675C1.66663 5.90995 1.73149 6.53288 1.81004 7.10639C1.94698 8.1063 2.72707 8.8864 3.72699 9.02334C4.3005 9.10188 4.92343 9.16675 5.41663 9.16675C5.90983 9.16675 6.53275 9.10188 7.10626 9.02334C8.10618 8.8864 8.88627 8.1063 9.02322 7.10639C9.10176 6.53288 9.16663 5.90995 9.16663 5.41675C9.16663 4.92355 9.10176 4.30062 9.02322 3.72711C8.88627 2.72719 8.10618 1.9471 7.10626 1.81016C6.53275 1.73161 5.90983 1.66675 5.41663 1.66675C4.92343 1.66675 4.3005 1.73161 3.72699 1.81016Z" fill="#5F6165"/>
</svg>
