<svg width="20" height="20" viewBox="0 0 20 20" fill="none" xmlns="http://www.w3.org/2000/svg">
<path d="M18.0892 3.08934C18.4147 2.7639 18.4147 2.23626 18.0892 1.91083C17.7638 1.58539 17.2361 1.58539 16.9107 1.91083L6.49404 12.3275C6.1686 12.6529 6.1686 13.1806 6.49404 13.506C6.81947 13.8314 7.34711 13.8314 7.67255 13.506L18.0892 3.08934Z" fill="#72767C"/>
<path d="M4.33922 16.8393C4.66465 16.5139 4.66465 15.9863 4.33922 15.6608C4.01378 15.3354 3.48614 15.3354 3.1607 15.6608L1.9107 16.9108C1.58527 17.2363 1.58527 17.7639 1.9107 18.0893C2.23614 18.4148 2.76378 18.4148 3.08922 18.0893L4.33922 16.8393Z" fill="#72767C"/>
<path fill-rule="evenodd" clip-rule="evenodd" d="M5.20549 16.1819C5.43652 16.4129 5.79454 16.5014 6.04841 16.2958C6.42556 15.9902 6.66666 15.5233 6.66666 15.0001C6.66666 14.0796 5.92046 13.3334 4.99999 13.3334C4.47678 13.3334 4.00987 13.5745 3.70431 13.9517C3.49863 14.2055 3.58715 14.5635 3.81818 14.7946L5.20549 16.1819ZM6.01925 18.1747C5.3879 18.3772 4.7366 18.07 4.26776 17.6012L2.39889 15.7323C1.93005 15.2635 1.62283 14.6122 1.82537 13.9808C2.25603 12.6384 3.51454 11.6667 4.99999 11.6667C6.84094 11.6667 8.33332 13.1591 8.33332 15.0001C8.33332 16.4855 7.36166 17.744 6.01925 18.1747Z" fill="#72767C"/>
<path d="M1.91072 3.08934C1.58529 2.7639 1.58529 2.23626 1.91072 1.91083C2.23616 1.58539 2.7638 1.58539 3.08924 1.91083L13.5059 12.3275C13.8313 12.6529 13.8313 13.1806 13.5059 13.506C13.1805 13.8314 12.6528 13.8314 12.3274 13.506L1.91072 3.08934Z" fill="#72767C"/>
<path d="M15.6607 16.8393C15.3353 16.5139 15.3353 15.9863 15.6607 15.6608C15.9862 15.3354 16.5138 15.3354 16.8392 15.6608L18.0892 16.9108C18.4147 17.2363 18.4147 17.7639 18.0892 18.0893C17.7638 18.4148 17.2362 18.4148 16.9107 18.0893L15.6607 16.8393Z" fill="#72767C"/>
<path fill-rule="evenodd" clip-rule="evenodd" d="M14.7945 16.1819C14.5635 16.4129 14.2055 16.5014 13.9516 16.2958C13.5744 15.9902 13.3333 15.5233 13.3333 15.0001C13.3333 14.0796 14.0795 13.3334 15 13.3334C15.5232 13.3334 15.9901 13.5745 16.2957 13.9517C16.5014 14.2055 16.4129 14.5635 16.1818 14.7946L14.7945 16.1819ZM13.9808 18.1747C14.6121 18.3772 15.2634 18.07 15.7322 17.6012L17.6011 15.7323C18.07 15.2635 18.3772 14.6122 18.1746 13.9808C17.744 12.6384 16.4855 11.6667 15 11.6667C13.1591 11.6667 11.6667 13.1591 11.6667 15.0001C11.6667 16.4855 12.6383 17.744 13.9808 18.1747Z" fill="#72767C"/>
</svg>
