<svg width="20" height="20" viewBox="0 0 20 20" fill="none" xmlns="http://www.w3.org/2000/svg">
<path fill-rule="evenodd" clip-rule="evenodd" d="M9.19095 12.5005C9.65086 12.4831 10.0378 12.8419 10.0551 13.3018C10.0943 14.3386 10.1492 15.0954 10.2033 15.6379C10.2565 16.1723 10.5791 16.4938 11.0287 16.5487C11.559 16.6135 12.3069 16.6666 13.3333 16.6666C14.3597 16.6666 15.1076 16.6135 15.6378 16.5487C16.0873 16.4938 16.41 16.1721 16.4632 15.6377C16.5636 14.6306 16.6666 12.8906 16.6666 9.99992C16.6666 7.10924 16.5636 5.36926 16.4632 4.36215C16.41 3.82769 16.0873 3.50606 15.6378 3.45111C15.1076 3.3863 14.3597 3.33325 13.3333 3.33325C12.3069 3.33325 11.5589 3.38629 11.0287 3.45111C10.5791 3.50607 10.2565 3.82757 10.2033 4.36189C10.1492 4.90446 10.0943 5.6612 10.0551 6.69802C10.0378 7.15793 9.65086 7.51669 9.19095 7.49932C8.73104 7.48196 8.37228 7.09506 8.38964 6.63515C8.42982 5.57095 8.48678 4.77944 8.54483 4.19668C8.66688 2.97154 9.52105 1.95634 10.8265 1.79676C11.4342 1.72247 12.2506 1.66658 13.3333 1.66658C14.416 1.66658 15.2324 1.72248 15.8401 1.79676C17.1457 1.95637 17.9997 2.97204 18.1217 4.19694C18.2291 5.27548 18.3333 7.07365 18.3333 9.99992C18.3333 12.9262 18.2291 14.7244 18.1217 15.8029C17.9997 17.0278 17.1457 18.0435 15.8401 18.2031C15.2324 18.2774 14.416 18.3333 13.3333 18.3333C12.2506 18.3333 11.4342 18.2774 10.8265 18.2031C9.52105 18.0435 8.66688 17.0283 8.54483 15.8032C8.48678 15.2204 8.42982 14.4289 8.38964 13.3647C8.37228 12.9048 8.73104 12.5179 9.19095 12.5005Z" fill="#72767C"/>
<path fill-rule="evenodd" clip-rule="evenodd" d="M6.00588 12.3274C6.33132 12.6528 6.33132 13.1805 6.00588 13.5059C5.68044 13.8314 5.15281 13.8314 4.82737 13.5059L1.9107 10.5893C1.58527 10.2638 1.58527 9.73618 1.9107 9.41074L4.82737 6.49408C5.15281 6.16864 5.68044 6.16864 6.00588 6.49408C6.33132 6.81951 6.33132 7.34715 6.00588 7.67259L4.5118 9.16667H12.5C12.9602 9.16667 13.3333 9.53976 13.3333 10C13.3333 10.4602 12.9602 10.8333 12.5 10.8333L4.5118 10.8333L6.00588 12.3274Z" fill="#72767C"/>
</svg>
