<svg width="20" height="20" viewBox="0 0 20 20" fill="none" xmlns="http://www.w3.org/2000/svg">
<path fill-rule="evenodd" clip-rule="evenodd" d="M14.7851 6.66667H5.21481C4.25344 6.66667 3.49142 7.4778 3.55139 8.4373L3.96806 15.104C4.02296 15.9824 4.75137 16.6667 5.63148 16.6667H14.3685C15.2486 16.6667 15.977 15.9824 16.0319 15.104L16.4486 8.4373C16.5085 7.4778 15.7465 6.66667 14.7851 6.66667ZM5.21481 5C3.29208 5 1.76803 6.62227 1.88797 8.54126L2.30464 15.2079C2.41444 16.9647 3.87127 18.3333 5.63148 18.3333H14.3685C16.1287 18.3333 17.5855 16.9647 17.6953 15.2079L18.112 8.54126C18.2319 6.62227 16.7079 5 14.7851 5H5.21481Z" fill="#72767C"/>
<path fill-rule="evenodd" clip-rule="evenodd" d="M5.83337 5.83341C5.83337 3.53223 7.69885 1.66675 10 1.66675C12.3012 1.66675 14.1667 3.53223 14.1667 5.83341V7.50008C14.1667 7.96032 13.7936 8.33341 13.3334 8.33341C12.8731 8.33341 12.5 7.96032 12.5 7.50008V5.83341C12.5 4.4527 11.3808 3.33341 10 3.33341C8.61933 3.33341 7.50004 4.4527 7.50004 5.83341V7.50008C7.50004 7.96032 7.12694 8.33341 6.66671 8.33341C6.20647 8.33341 5.83337 7.96032 5.83337 7.50008V5.83341Z" fill="#72767C"/>
</svg>
