<svg width="20" height="20" viewBox="0 0 20 20" fill="none" xmlns="http://www.w3.org/2000/svg">
<path fill-rule="evenodd" clip-rule="evenodd" d="M9.99996 18.3334C14.6023 18.3334 18.3333 14.6025 18.3333 10.0001C18.3333 5.39771 14.6023 1.66675 9.99996 1.66675C5.39759 1.66675 1.66663 5.39771 1.66663 10.0001C1.66663 14.6025 5.39759 18.3334 9.99996 18.3334ZM15.2665 14.0882C16.144 12.9593 16.6666 11.5407 16.6666 10.0001C16.6666 6.6004 14.1219 3.79507 10.8333 3.38499V6.77176C12.271 7.1418 13.3333 8.44688 13.3333 10.0001C13.3333 10.6183 13.165 11.1972 12.8717 11.6935L15.2665 14.0882ZM14.0879 15.2667L11.6932 12.8719C11.1969 13.1652 10.6181 13.3334 9.99996 13.3334C9.38182 13.3334 8.80298 13.1652 8.30673 12.8719L5.91199 15.2667C7.04088 16.1442 8.4594 16.6667 9.99996 16.6667C11.5405 16.6667 12.959 16.1442 14.0879 15.2667ZM6.66663 10.0001C6.66663 10.6183 6.83492 11.1972 7.12819 11.6935L4.73347 14.0882C3.85588 12.9593 3.33329 11.5407 3.33329 10.0001C3.33329 6.6004 5.87803 3.79507 9.16663 3.38499V6.77176C7.72894 7.1418 6.66663 8.44688 6.66663 10.0001ZM9.99996 11.6667C10.9204 11.6667 11.6666 10.9206 11.6666 10.0001C11.6666 9.07961 10.9204 8.33342 9.99996 8.33342C9.07948 8.33342 8.33329 9.07961 8.33329 10.0001C8.33329 10.9206 9.07948 11.6667 9.99996 11.6667Z" fill="#72767C"/>
</svg>
