<svg width="20" height="20" viewBox="0 0 20 20" fill="none" xmlns="http://www.w3.org/2000/svg">
<path fill-rule="evenodd" clip-rule="evenodd" d="M16.6245 5.90876C16.6332 5.25784 16.3892 4.60419 15.8925 4.10752C15.3958 3.61086 14.7422 3.36686 14.0913 3.37552C14.091 3.37552 14.0915 3.37551 14.0913 3.37552C13.7315 3.38041 13.3719 3.46249 13.0408 3.62176C12.9221 3.67884 12.807 3.74582 12.6968 3.82273C12.6543 3.85234 12.5997 3.8591 12.5518 3.83927C12.5041 3.81945 12.4701 3.77602 12.4611 3.72509C12.4375 3.59274 12.4035 3.464 12.3599 3.33974C12.2384 2.99301 12.0427 2.68118 11.7917 2.42333C11.7916 2.42316 11.7919 2.42351 11.7917 2.42333C11.3376 1.95694 10.7024 1.66675 9.99996 1.66675C9.29757 1.66675 8.66283 1.95641 8.20869 2.4228C8.20852 2.42298 8.20886 2.42263 8.20869 2.4228C7.95775 2.68065 7.76149 2.99301 7.63999 3.33974C7.59645 3.464 7.56244 3.59274 7.53885 3.72509C7.52977 3.77602 7.49587 3.81945 7.44808 3.83927C7.40026 3.8591 7.3456 3.85234 7.30314 3.82273C7.19288 3.74582 7.0778 3.67883 6.95914 3.62176C6.62805 3.46249 6.26914 3.38042 5.90937 3.37553C5.90913 3.37552 5.90962 3.37553 5.90937 3.37553C5.25846 3.36687 4.60407 3.61086 4.1074 4.10752C3.61074 4.60419 3.36673 5.25784 3.37539 5.90876C3.37539 5.90851 3.3754 5.909 3.37539 5.90876C3.38029 6.26852 3.46237 6.62817 3.62163 6.95926C3.67871 7.07791 3.7457 7.19299 3.8226 7.30326C3.85222 7.34573 3.85898 7.40038 3.83915 7.4482C3.81933 7.49599 3.7759 7.5299 3.72497 7.53897C3.59262 7.56257 3.46387 7.59657 3.3396 7.64012C2.99288 7.76162 2.68106 7.95737 2.42321 8.2083C2.42303 8.20847 2.42339 8.20813 2.42321 8.2083C1.95682 8.66244 1.66663 9.29769 1.66663 10.0001C1.66663 10.7025 1.95629 11.3372 2.42268 11.7914C2.42251 11.7912 2.42286 11.7915 2.42268 11.7914C2.68053 12.0423 2.99288 12.2385 3.3396 12.36C3.46387 12.4036 3.59262 12.4376 3.72497 12.4612C3.7759 12.4703 3.81933 12.5042 3.83915 12.552C3.85898 12.5998 3.85222 12.6544 3.8226 12.6969C3.7457 12.8072 3.67871 12.9223 3.62163 13.0409C3.46237 13.372 3.3803 13.7309 3.3754 14.0907C3.3754 14.0909 3.37541 14.0904 3.3754 14.0907C3.36674 14.7416 3.61074 15.396 4.1074 15.8926C4.60407 16.3893 5.25772 16.6333 5.90864 16.6246C5.90839 16.6247 5.90888 16.6246 5.90864 16.6246C6.2684 16.6198 6.62804 16.5377 6.95912 16.3784C7.07778 16.3213 7.19287 16.2543 7.30313 16.1774C7.3456 16.1478 7.40026 16.1411 7.44808 16.1609C7.49587 16.1807 7.52977 16.2241 7.53885 16.2751C7.56244 16.4074 7.59645 16.5362 7.64 16.6604C7.7615 17.0072 7.95725 17.319 8.20817 17.5768C8.208 17.5767 8.20835 17.577 8.20817 17.5768C8.66232 18.0432 9.29757 18.3334 9.99996 18.3334C10.7024 18.3334 11.3371 18.0437 11.7912 17.5774C11.7911 17.5775 11.7914 17.5772 11.7912 17.5774C12.0422 17.3195 12.2384 17.0072 12.3599 16.6604C12.4035 16.5362 12.4375 16.4074 12.4611 16.2751C12.4701 16.2241 12.5041 16.1807 12.5518 16.1609C12.5997 16.1411 12.6543 16.1478 12.6968 16.1774C12.8071 16.2543 12.9221 16.3213 13.0408 16.3784C13.3719 16.5377 13.7308 16.6197 14.0905 16.6246C14.0903 16.6246 14.0908 16.6246 14.0905 16.6246C14.7415 16.6333 15.3958 16.3893 15.8925 15.8926C16.3892 15.396 16.6332 14.7423 16.6245 14.0914C16.6245 14.0912 16.6245 14.0916 16.6245 14.0914C16.6196 13.7316 16.5375 13.372 16.3783 13.0409C16.3212 12.9223 16.2542 12.8072 16.1773 12.6969C16.1477 12.6544 16.1409 12.5998 16.1608 12.552C16.1806 12.5042 16.224 12.4703 16.275 12.4612C16.4073 12.4376 16.5361 12.4036 16.6603 12.36C17.007 12.2385 17.3189 12.0428 17.5767 11.7919C17.5765 11.792 17.5769 11.7917 17.5767 11.7919C18.0431 11.3377 18.3333 10.7025 18.3333 10.0001C18.3333 9.29769 18.0436 8.66295 17.5772 8.20881C17.5771 8.20864 17.5774 8.20898 17.5772 8.20881C17.3194 7.95788 17.007 7.76162 16.6603 7.64012C16.5361 7.59657 16.4073 7.56257 16.275 7.53897C16.224 7.5299 16.1806 7.49599 16.1608 7.4482C16.1409 7.40038 16.1477 7.34572 16.1773 7.30326C16.2542 7.19299 16.3212 7.07791 16.3783 6.95925C16.5376 6.62816 16.6196 6.26852 16.6245 5.90876C16.6245 5.90851 16.6245 5.909 16.6245 5.90876ZM14.714 5.28604C14.4253 4.99735 13.9742 4.96378 13.6502 5.18976C13.1586 5.53262 12.5057 5.62443 11.9134 5.37882C11.3227 5.13384 10.9256 4.60829 10.8203 4.01757C10.7509 3.62866 10.4082 3.33341 9.99996 3.33341C9.5917 3.33341 9.24898 3.62866 9.17965 4.01757C9.07436 4.60828 8.67727 5.13384 8.08649 5.37882C7.49419 5.62443 6.84133 5.53261 6.34973 5.18976C6.02571 4.96378 5.5746 4.99735 5.28591 5.28604C4.99723 5.57472 4.96366 6.02583 5.18964 6.34985C5.5325 6.84145 5.62431 7.49431 5.37869 8.08662C5.13372 8.67739 4.60816 9.07448 4.01745 9.17978C3.62854 9.2491 3.33329 9.59182 3.33329 10.0001C3.33329 10.4083 3.62854 10.7511 4.01745 10.8204C4.60816 10.9257 5.13372 11.3228 5.37869 11.9135C5.62431 12.5059 5.53249 13.1587 5.18964 13.6503C4.96366 13.9743 4.99723 14.4254 5.28591 14.7141C5.5746 15.0028 6.02571 15.0364 6.34973 14.8104C6.84132 14.4676 7.49418 14.3757 8.08649 14.6213C8.67726 14.8663 9.07436 15.3919 9.17966 15.9826C9.24898 16.3715 9.5917 16.6667 9.99996 16.6667C10.4082 16.6667 10.7509 16.3715 10.8203 15.9826C10.9256 15.3919 11.3227 14.8663 11.9134 14.6214C12.5057 14.3757 13.1586 14.4676 13.6502 14.8104C13.9742 15.0364 14.4253 15.0028 14.714 14.7141C15.0027 14.4254 15.0363 13.9743 14.8103 13.6503C14.4674 13.1587 14.3756 12.5059 14.6212 11.9135C14.8662 11.3228 15.3918 10.9257 15.9825 10.8204C16.3714 10.7511 16.6666 10.4083 16.6666 10.0001C16.6666 9.59182 16.3714 9.2491 15.9825 9.17978C15.3918 9.07448 14.8662 8.67739 14.6212 8.08662C14.3756 7.49431 14.4674 6.84144 14.8103 6.34985C15.0363 6.02583 15.0027 5.57472 14.714 5.28604Z" fill="#72767C"/>
<path fill-rule="evenodd" clip-rule="evenodd" d="M9.99996 11.6667C10.9204 11.6667 11.6666 10.9206 11.6666 10.0001C11.6666 9.07961 10.9204 8.33341 9.99996 8.33341C9.07948 8.33341 8.33329 9.07961 8.33329 10.0001C8.33329 10.9206 9.07948 11.6667 9.99996 11.6667ZM9.99996 13.3334C11.8409 13.3334 13.3333 11.841 13.3333 10.0001C13.3333 8.15913 11.8409 6.66675 9.99996 6.66675C8.15901 6.66675 6.66663 8.15913 6.66663 10.0001C6.66663 11.841 8.15901 13.3334 9.99996 13.3334Z" fill="#72767C"/>
</svg>
